<svg xmlns="http://www.w3.org/2000/svg" fill="currentColor" viewBox="0 0 116 22" class="hidden h-[22px] dark:flex"><path fill="#FCFBF8" d="M109.108 21.115q-2.189 0-3.802-.834-1.614-.848-2.517-2.544-.89-1.695-.889-4.199 0-2.38.93-4.103.93-1.737 2.571-2.64 1.641-.902 3.734-.902 2.01 0 3.57.875 1.559.876 2.42 2.544.876 1.67.876 3.994 0 .834-.014 1.326h-10.9V11.76h8.26l-1.559.534q0-1.122-.328-1.874-.315-.766-.93-1.149t-1.491-.383q-.916 0-1.614.452-.683.437-1.066 1.313-.37.875-.37 2.106v1.408q0 1.259.383 2.134t1.094 1.327q.712.437 1.683.437 1.067 0 1.764-.547.698-.56.875-1.573h4.144q-.191 1.587-1.08 2.75-.876 1.162-2.339 1.79-1.464.63-3.405.63M96.517 1.106h4.144v19.612h-4.144zM89.465 21.115q-1.176 0-2.106-.41a4.1 4.1 0 0 1-1.56-1.231q-.642-.835-.957-2.052l.438.123v3.173h-4.103V6.29h4.144v3.228l-.465.082q.315-1.163.957-1.983.657-.834 1.6-1.272.944-.45 2.12-.451 1.765 0 3.064.916t1.997 2.64q.697 1.71.697 4.062 0 2.339-.711 4.062-.71 1.71-2.038 2.625-1.312.917-3.077.917m-1.286-3.16q.93 0 1.56-.547.642-.547.957-1.545.328-.999.328-2.352 0-1.354-.328-2.353-.315-.997-.957-1.545-.63-.56-1.56-.56-.916 0-1.572.56-.644.547-.972 1.559-.328.999-.328 2.339 0 1.353.328 2.352.33.998.972 1.545.656.547 1.572.547M81.177 1.107h4.144V6.29h-4.144zM70.775 21.115q-1.354 0-2.434-.533a4.1 4.1 0 0 1-1.683-1.518q-.601-.999-.602-2.326 0-2.024 1.19-3.09 1.19-1.08 3.433-1.409l2.503-.356q.752-.11 1.19-.273t.643-.438q.204-.287.205-.725 0-.45-.246-.82-.232-.383-.712-.602-.465-.232-1.135-.232-1.065 0-1.71.56-.642.547-.697 1.505h-4.28q.054-1.45.875-2.572.834-1.134 2.311-1.764t3.42-.629q2.037 0 3.446.67 1.408.657 2.12 1.888.724 1.23.724 2.94v6.018q0 .97.137 1.805.15.82.424 1.04v.464H75.59a10 10 0 0 1-.233-1.326 17 17 0 0 1-.095-1.56l.67-.287a4.6 4.6 0 0 1-.957 1.792q-.684.807-1.765 1.3-1.065.477-2.434.478m1.532-3.036q.875 0 1.545-.383.67-.398 1.026-1.094.37-.697.37-1.587v-1.887l.341.191a2.2 2.2 0 0 1-.82.67q-.48.234-1.3.397l-1.053.205q-1.053.206-1.586.63-.52.423-.52 1.19 0 .765.56 1.217.561.45 1.437.45M51.962 6.29h4.404l3.788 12.377h-1.326L62.466 6.29h4.28l-4.992 14.428h-4.609zM45.485 21.115q-2.148 0-3.775-.93-1.614-.93-2.503-2.653-.875-1.724-.875-4.035t.875-4.02q.89-1.724 2.503-2.654 1.627-.93 3.775-.93t3.76.93q1.615.93 2.49 2.653.889 1.71.889 4.021t-.89 4.035q-.875 1.723-2.488 2.653-1.614.93-3.761.93m0-3.173q.902 0 1.545-.492.642-.507.985-1.491.342-.998.342-2.462 0-2.174-.753-3.296-.752-1.135-2.12-1.135-.901 0-1.559.506-.642.492-.984 1.49-.342.986-.342 2.435t.342 2.448.984 1.505q.657.492 1.56.492M26.22 1.106h4.294v16.556l-.766-.889h5.786c3.659 0 3.159 3.945 3.159 3.945H26.22z"></path><mask id="lovable-logo-text-dark_svg__b" width="20" height="21" x="0" y="0" maskUnits="userSpaceOnUse" style="mask-type:alpha"><path fill="url(#lovable-logo-text-dark_svg__a)" fill-rule="evenodd" d="M5.904.885c3.26 0 5.904 2.65 5.904 5.92v2.25h1.965c3.26 0 5.904 2.65 5.904 5.92s-2.643 5.919-5.904 5.919H0V6.804C0 3.536 2.643.886 5.904.886" clip-rule="evenodd"></path></mask><g mask="url(#lovable-logo-text-dark_svg__b)"><g filter="url(#lovable-logo-text-dark_svg__c)"><circle cx="8.632" cy="11.566" r="13.32" fill="#4B73FF"></circle></g><g filter="url(#lovable-logo-text-dark_svg__d)"><ellipse cx="10.095" cy="4.256" fill="#FF66F4" rx="17.059" ry="13.32"></ellipse></g><g filter="url(#lovable-logo-text-dark_svg__e)"><ellipse cx="12.877" cy="1.75" fill="#FF0105" rx="13.32" ry="11.698"></ellipse></g><g filter="url(#lovable-logo-text-dark_svg__f)"><circle cx="10.332" cy="4.253" r="8.011" fill="#FE7B02"></circle></g></g><defs><filter id="lovable-logo-text-dark_svg__c" width="38.579" height="38.579" x="-10.658" y="-7.724" color-interpolation-filters="sRGB" filterUnits="userSpaceOnUse"><feFlood flood-opacity="0" result="BackgroundImageFix"></feFlood><feBlend in="SourceGraphic" in2="BackgroundImageFix" result="shape"></feBlend><feGaussianBlur result="effect1_foregroundBlur_19703_15608" stdDeviation="2.985"></feGaussianBlur></filter><filter id="lovable-logo-text-dark_svg__d" width="46.057" height="38.579" x="-12.934" y="-15.033" color-interpolation-filters="sRGB" filterUnits="userSpaceOnUse"><feFlood flood-opacity="0" result="BackgroundImageFix"></feFlood><feBlend in="SourceGraphic" in2="BackgroundImageFix" result="shape"></feBlend><feGaussianBlur result="effect1_foregroundBlur_19703_15608" stdDeviation="2.985"></feGaussianBlur></filter><filter id="lovable-logo-text-dark_svg__e" width="38.579" height="35.334" x="-6.412" y="-15.918" color-interpolation-filters="sRGB" filterUnits="userSpaceOnUse"><feFlood flood-opacity="0" result="BackgroundImageFix"></feFlood><feBlend in="SourceGraphic" in2="BackgroundImageFix" result="shape"></feBlend><feGaussianBlur result="effect1_foregroundBlur_19703_15608" stdDeviation="2.985"></feGaussianBlur></filter><filter id="lovable-logo-text-dark_svg__f" width="27.96" height="27.96" x="-3.648" y="-9.727" color-interpolation-filters="sRGB" filterUnits="userSpaceOnUse"><feFlood flood-opacity="0" result="BackgroundImageFix"></feFlood><feBlend in="SourceGraphic" in2="BackgroundImageFix" result="shape"></feBlend><feGaussianBlur result="effect1_foregroundBlur_19703_15608" stdDeviation="2.985"></feGaussianBlur></filter><linearGradient id="lovable-logo-text-dark_svg__a" x1="6.622" x2="12.617" y1="4.401" y2="20.886" gradientUnits="userSpaceOnUse"><stop offset="0.025" stop-color="#FF8E63"></stop><stop offset="0.56" stop-color="#FF7EB0"></stop><stop offset="0.95" stop-color="#4B73FF"></stop></linearGradient></defs></svg>